<?xml version="1.0" encoding="utf-8" standalone="no"?>
<!DOCTYPE svg PUBLIC "-//W3C//DTD SVG 1.1//EN"
  "http://www.w3.org/Graphics/SVG/1.1/DTD/svg11.dtd">
<svg xmlns:xlink="http://www.w3.org/1999/xlink" width="540pt" height="333.72pt" viewBox="0 0 540 333.72" xmlns="http://www.w3.org/2000/svg" version="1.1">
 <metadata>
  <rdf:RDF xmlns:dc="http://purl.org/dc/elements/1.1/" xmlns:cc="http://creativecommons.org/ns#" xmlns:rdf="http://www.w3.org/1999/02/22-rdf-syntax-ns#">
   <cc:Work>
    <dc:type rdf:resource="http://purl.org/dc/dcmitype/StillImage"/>
    <dc:date>2025-09-22T16:56:04.474774</dc:date>
    <dc:format>image/svg+xml</dc:format>
    <dc:creator>
     <cc:Agent>
      <dc:title>Matplotlib v3.10.6, https://matplotlib.org/</dc:title>
     </cc:Agent>
    </dc:creator>
   </cc:Work>
  </rdf:RDF>
 </metadata>
 <defs>
  <style type="text/css">*{stroke-linejoin: round; stroke-linecap: butt}</style>
 </defs>
 <g id="figure_1">
  <g id="patch_1">
   <path d="M 0 333.72 
L 540 333.72 
L 540 0 
L 0 0 
z
" style="fill: #ffffff"/>
  </g>
  <g id="axes_1">
   <g id="patch_2">
    <path d="M 32.906959 154.010312 
L 177.400802 154.010312 
L 177.400802 37.802595 
L 32.906959 37.802595 
z
" style="fill: #ffffff"/>
   </g>
   <g id="matplotlib.axis_1">
    <g id="xtick_1">
     <g id="text_1">
      <!-- 0 -->
      <g style="fill: #262626" transform="translate(35.155763 171.511094) scale(0.11 -0.11)">
       <defs>
        <path id="Inter-Regular-30" d="M 2000 -64 
C 3027 -64 3618 807 3618 2327 
C 3618 3836 3018 4718 2000 4718 
C 982 4718 382 3836 382 2327 
C 382 807 973 -64 2000 -64 
z
M 2000 436 
C 1323 436 927 1116 927 2327 
C 927 3536 1327 4227 2000 4227 
C 2673 4227 3073 3536 3073 2327 
C 3073 1116 2677 436 2000 436 
z
" transform="scale(0.015625)"/>
       </defs>
       <use xlink:href="#Inter-Regular-30"/>
      </g>
     </g>
    </g>
    <g id="xtick_2">
     <g id="text_2">
      <!-- 5 -->
      <g style="fill: #262626" transform="translate(79.329314 171.511094) scale(0.11 -0.11)">
       <defs>
        <path id="Inter-Regular-35" d="M 1936 -64 
C 2823 -64 3473 591 3473 1482 
C 3473 2384 2846 3045 1991 3045 
C 1677 3045 1373 2934 1182 2782 
L 1155 2782 
L 1318 4155 
L 3264 4155 
L 3264 4655 
L 846 4655 
L 564 2364 
L 1091 2300 
C 1284 2439 1614 2539 1900 2536 
C 2493 2532 2927 2082 2927 1473 
C 2927 875 2509 436 1936 436 
C 1459 436 1080 743 1036 1164 
L 491 1164 
C 525 455 1136 -64 1936 -64 
z
" transform="scale(0.015625)"/>
       </defs>
       <use xlink:href="#Inter-Regular-35"/>
      </g>
     </g>
    </g>
    <g id="xtick_3">
     <g id="text_3">
      <!-- 10 -->
      <g style="fill: #262626" transform="translate(120.760599 171.511094) scale(0.11 -0.11)">
       <defs>
        <path id="Inter-Regular-31" d="M 2118 4655 
L 1555 4655 
L 391 3882 
L 391 3309 
L 1527 4064 
L 1555 4064 
L 1555 0 
L 2118 0 
L 2118 4655 
z
" transform="scale(0.015625)"/>
       </defs>
       <use xlink:href="#Inter-Regular-31"/>
       <use xlink:href="#Inter-Regular-30" transform="translate(46.448868 0)"/>
      </g>
     </g>
    </g>
    <g id="xtick_4">
     <g id="text_4">
      <!-- 15 -->
      <g style="fill: #262626" transform="translate(164.93415 171.511094) scale(0.11 -0.11)">
       <use xlink:href="#Inter-Regular-31"/>
       <use xlink:href="#Inter-Regular-35" transform="translate(46.448868 0)"/>
      </g>
     </g>
    </g>
   </g>
   <g id="matplotlib.axis_2">
    <g id="ytick_1">
     <g id="text_5">
      <!-- −2 -->
      <g style="fill: #262626" transform="translate(9.500552 146.348882) scale(0.11 -0.11)">
       <defs>
        <path id="Inter-Regular-2212" d="M 3564 2073 
L 655 2073 
L 655 1564 
L 3564 1564 
L 3564 2073 
z
" transform="scale(0.015625)"/>
        <path id="Inter-Regular-32" d="M 482 0 
L 3418 0 
L 3418 500 
L 1255 500 
L 1255 536 
L 2300 1655 
C 3100 2511 3336 2911 3336 3427 
C 3336 4145 2755 4718 1936 4718 
C 1121 4718 500 4164 500 3345 
L 1036 3345 
C 1036 3875 1380 4227 1918 4227 
C 2423 4227 2809 3918 2809 3427 
C 2809 2998 2557 2680 2018 2091 
L 482 409 
L 482 0 
z
" transform="scale(0.015625)"/>
       </defs>
       <use xlink:href="#Inter-Regular-2212"/>
       <use xlink:href="#Inter-Regular-32" transform="translate(65.909103 0)"/>
      </g>
     </g>
    </g>
    <g id="ytick_2">
     <g id="text_6">
      <!-- 0 -->
      <g style="fill: #262626" transform="translate(16.531959 104.181223) scale(0.11 -0.11)">
       <use xlink:href="#Inter-Regular-30"/>
      </g>
     </g>
    </g>
    <g id="ytick_3">
     <g id="text_7">
      <!-- 2 -->
      <g style="fill: #262626" transform="translate(16.75024 62.013564) scale(0.11 -0.11)">
       <use xlink:href="#Inter-Regular-32"/>
      </g>
     </g>
    </g>
   </g>
   <g id="line2d_1">
    <path d="M 39.474861 148.728144 
L 40.80171 129.366675 
L 42.128558 119.446575 
L 43.455407 112.727523 
L 44.782256 107.640146 
L 46.109105 103.544809 
L 47.435954 100.117039 
L 48.762803 97.169398 
L 50.089652 94.583762 
L 51.416501 92.28086 
L 52.743349 90.204908 
L 54.070198 88.315162 
L 55.397047 86.580949 
L 56.723896 84.978602 
L 58.050745 83.489478 
L 59.377594 82.098626 
L 60.704443 80.793875 
L 62.031292 79.565183 
L 63.358141 78.404169 
L 64.684989 77.303765 
L 66.011838 76.257956 
L 67.338687 75.261578 
L 68.665536 74.310171 
L 69.992385 73.399848 
L 71.319234 72.527209 
L 72.646083 71.689256 
L 73.972932 70.883337 
L 75.29978 70.107094 
L 76.626629 69.358417 
L 77.953478 68.635417 
L 79.280327 67.93639 
L 80.607176 67.259797 
L 81.934025 66.604242 
L 83.260874 65.968458 
L 84.587723 65.351286 
L 85.914571 64.751667 
L 87.24142 64.168631 
L 88.568269 63.601284 
L 89.895118 63.048806 
L 91.221967 62.510435 
L 92.548816 61.98547 
L 93.875665 61.473259 
L 95.202514 60.973198 
L 96.529362 60.484722 
L 97.856211 60.007308 
L 99.18306 59.540465 
L 100.509909 59.083735 
L 101.836758 58.636691 
L 103.163607 58.198928 
L 104.490456 57.77007 
L 105.817305 57.349762 
L 107.144154 56.937669 
L 108.471002 56.533476 
L 109.797851 56.136887 
L 111.1247 55.74762 
L 112.451549 55.365409 
L 113.778398 54.990005 
L 115.105247 54.621168 
L 116.432096 54.258672 
L 117.758945 53.902304 
L 119.085793 53.551859 
L 120.412642 53.207144 
L 121.739491 52.867974 
L 123.06634 52.534174 
L 124.393189 52.205577 
L 125.720038 51.882023 
L 127.046887 51.563359 
L 128.373736 51.249439 
L 129.700584 50.940125 
L 131.027433 50.635284 
L 132.354282 50.334787 
L 133.681131 50.038513 
L 135.00798 49.746344 
L 136.334829 49.458169 
L 137.661678 49.17388 
L 138.988527 48.893373 
L 140.315376 48.616549 
L 141.642224 48.343313 
L 142.969073 48.073572 
L 144.295922 47.807239 
L 145.622771 47.544229 
L 146.94962 47.284458 
L 148.276469 47.02785 
L 149.603318 46.774327 
L 150.930167 46.523817 
L 152.257015 46.276248 
L 153.583864 46.031552 
L 154.910713 45.789664 
L 156.237562 45.550519 
L 157.564411 45.314056 
L 158.89126 45.080216 
L 160.218109 44.848941 
L 161.544958 44.620176 
L 162.871806 44.393866 
L 164.198655 44.16996 
L 165.525504 43.948406 
L 166.852353 43.729156 
L 168.179202 43.512163 
L 169.506051 43.297381 
L 170.8329 43.084764 
" clip-path="url(#pc19244b992)" style="fill: none; stroke: #4c72b0; stroke-width: 1.5; stroke-linecap: round"/>
   </g>
   <g id="patch_3">
    <path d="M 32.906959 154.010312 
L 32.906959 37.802595 
" style="fill: none; stroke: #262626; stroke-width: 1.25; stroke-linejoin: miter; stroke-linecap: square"/>
   </g>
   <g id="patch_4">
    <path d="M 32.906959 154.010312 
L 177.400802 154.010312 
" style="fill: none; stroke: #262626; stroke-width: 1.25; stroke-linejoin: miter; stroke-linecap: square"/>
   </g>
   <g id="text_8">
    <!-- logn -->
    <g style="fill: #262626" transform="translate(92.983255 31.802595) scale(0.12 -0.12)">
     <defs>
      <path id="Inter-Regular-6c" d="M 1027 4655 
L 491 4655 
L 491 0 
L 1027 0 
L 1027 4655 
z
" transform="scale(0.015625)"/>
      <path id="Inter-Regular-6f" d="M 1909 -73 
C 2855 -73 3491 645 3491 1727 
C 3491 2818 2855 3536 1909 3536 
C 964 3536 327 2818 327 1727 
C 327 645 964 -73 1909 -73 
z
M 1909 409 
C 1191 409 864 1027 864 1727 
C 864 2427 1191 3055 1909 3055 
C 2627 3055 2955 2427 2955 1727 
C 2955 1027 2627 409 1909 409 
z
" transform="scale(0.015625)"/>
      <path id="Inter-Regular-67" d="M 1900 -1382 
C 2736 -1382 3409 -1000 3409 -100 
L 3409 3491 
L 2891 3491 
L 2891 2936 
L 2836 2936 
C 2718 3118 2500 3536 1818 3536 
C 936 3536 327 2836 327 1764 
C 327 673 964 55 1809 55 
C 2491 55 2709 455 2827 645 
L 2873 645 
L 2873 -64 
C 2873 -645 2464 -909 1900 -909 
C 1266 -909 1043 -575 900 -382 
L 473 -682 
C 691 -1048 1121 -1382 1900 -1382 
z
M 1882 536 
C 1209 536 864 1045 864 1773 
C 864 2482 1200 3055 1882 3055 
C 2536 3055 2882 2527 2882 1773 
C 2882 1000 2527 536 1882 536 
z
" transform="scale(0.015625)"/>
      <path id="Inter-Regular-6e" d="M 1027 2100 
C 1027 2709 1405 3055 1918 3055 
C 2416 3055 2718 2730 2718 2182 
L 2718 0 
L 3255 0 
L 3255 2218 
C 3255 3109 2780 3536 2073 3536 
C 1546 3536 1218 3300 1055 2945 
L 1009 2945 
L 1009 3491 
L 491 3491 
L 491 0 
L 1027 0 
L 1027 2100 
z
" transform="scale(0.015625)"/>
     </defs>
     <use xlink:href="#Inter-Regular-6c"/>
     <use xlink:href="#Inter-Regular-6f" transform="translate(23.721588 0)"/>
     <use xlink:href="#Inter-Regular-67" transform="translate(83.380692 0)"/>
     <use xlink:href="#Inter-Regular-6e" transform="translate(144.318207 0)"/>
    </g>
   </g>
  </g>
  <g id="axes_2">
   <g id="patch_5">
    <path d="M 220.52675 154.010312 
L 365.020593 154.010312 
L 365.020593 37.802595 
L 220.52675 37.802595 
z
" style="fill: #ffffff"/>
   </g>
   <g id="matplotlib.axis_3">
    <g id="xtick_5">
     <g id="text_9">
      <!-- 0 -->
      <g style="fill: #262626" transform="translate(222.775555 171.511094) scale(0.11 -0.11)">
       <use xlink:href="#Inter-Regular-30"/>
      </g>
     </g>
    </g>
    <g id="xtick_6">
     <g id="text_10">
      <!-- 5 -->
      <g style="fill: #262626" transform="translate(266.949106 171.511094) scale(0.11 -0.11)">
       <use xlink:href="#Inter-Regular-35"/>
      </g>
     </g>
    </g>
    <g id="xtick_7">
     <g id="text_11">
      <!-- 10 -->
      <g style="fill: #262626" transform="translate(308.380391 171.511094) scale(0.11 -0.11)">
       <use xlink:href="#Inter-Regular-31"/>
       <use xlink:href="#Inter-Regular-30" transform="translate(46.448868 0)"/>
      </g>
     </g>
    </g>
    <g id="xtick_8">
     <g id="text_12">
      <!-- 15 -->
      <g style="fill: #262626" transform="translate(352.553941 171.511094) scale(0.11 -0.11)">
       <use xlink:href="#Inter-Regular-31"/>
       <use xlink:href="#Inter-Regular-35" transform="translate(46.448868 0)"/>
      </g>
     </g>
    </g>
   </g>
   <g id="matplotlib.axis_4">
    <g id="ytick_4">
     <g id="text_13">
      <!-- 1 -->
      <g style="fill: #262626" transform="translate(205.916907 132.419011) scale(0.11 -0.11)">
       <use xlink:href="#Inter-Regular-31"/>
      </g>
     </g>
    </g>
    <g id="ytick_5">
     <g id="text_14">
      <!-- 2 -->
      <g style="fill: #262626" transform="translate(204.370032 102.716835) scale(0.11 -0.11)">
       <use xlink:href="#Inter-Regular-32"/>
      </g>
     </g>
    </g>
    <g id="ytick_6">
     <g id="text_15">
      <!-- 3 -->
      <g style="fill: #262626" transform="translate(204.026282 73.014659) scale(0.11 -0.11)">
       <defs>
        <path id="Inter-Regular-33" d="M 2055 -64 
C 2957 -64 3627 502 3627 1264 
C 3627 1855 3277 2284 2691 2382 
L 2691 2418 
C 3161 2561 3455 2948 3455 3473 
C 3455 4132 2934 4718 2073 4718 
C 1268 4718 600 4223 573 3491 
L 1118 3491 
C 1139 3955 1580 4227 2064 4227 
C 2577 4227 2909 3916 2909 3445 
C 2909 2955 2525 2636 1973 2636 
L 1600 2636 
L 1600 2136 
L 1973 2136 
C 2680 2136 3073 1777 3073 1264 
C 3073 770 2643 436 2046 436 
C 1507 436 1080 714 1046 1164 
L 473 1164 
C 507 432 1152 -64 2055 -64 
z
" transform="scale(0.015625)"/>
       </defs>
       <use xlink:href="#Inter-Regular-33"/>
      </g>
     </g>
    </g>
    <g id="ytick_7">
     <g id="text_16">
      <!-- 4 -->
      <g style="fill: #262626" transform="translate(203.964407 43.312484) scale(0.11 -0.11)">
       <defs>
        <path id="Inter-Regular-34" d="M 373 955 
L 2564 955 
L 2564 0 
L 3100 0 
L 3100 955 
L 3736 955 
L 3736 1455 
L 3100 1455 
L 3100 4655 
L 2418 4655 
L 373 1418 
L 373 955 
z
M 2564 1455 
L 982 1455 
L 982 1491 
L 2527 3936 
L 2564 3936 
L 2564 1455 
z
" transform="scale(0.015625)"/>
       </defs>
       <use xlink:href="#Inter-Regular-34"/>
      </g>
     </g>
    </g>
   </g>
   <g id="line2d_2">
    <path d="M 227.094652 148.728144 
L 228.421501 143.254715 
L 229.74835 139.311787 
L 231.075199 136.062753 
L 232.402048 133.234339 
L 233.728897 130.696096 
L 235.055746 128.373651 
L 236.382595 126.219839 
L 237.709443 124.202519 
L 239.036292 122.298624 
L 240.363141 120.490935 
L 241.68999 118.766192 
L 243.016839 117.113927 
L 244.343688 115.525705 
L 245.670537 113.994611 
L 246.997386 112.51489 
L 248.324234 111.081694 
L 249.651083 109.690892 
L 250.977932 108.338931 
L 252.304781 107.022729 
L 253.63163 105.739588 
L 254.958479 104.487137 
L 256.285328 103.263273 
L 257.612177 102.066124 
L 258.939025 100.894012 
L 260.265874 99.745431 
L 261.592723 98.619017 
L 262.919572 97.513535 
L 264.246421 96.427858 
L 265.57327 95.36096 
L 266.900119 94.311898 
L 268.226968 93.279806 
L 269.553816 92.263888 
L 270.880665 91.263404 
L 272.207514 90.277673 
L 273.534363 89.306061 
L 274.861212 88.347978 
L 276.188061 87.402873 
L 277.51491 86.470234 
L 278.841759 85.549579 
L 280.168608 84.640459 
L 281.495456 83.742449 
L 282.822305 82.855154 
L 284.149154 81.978197 
L 285.476003 81.111226 
L 286.802852 80.253908 
L 288.129701 79.405926 
L 289.45655 78.566983 
L 290.783399 77.736795 
L 292.110247 76.915094 
L 293.437096 76.101624 
L 294.763945 75.296144 
L 296.090794 74.498422 
L 297.417643 73.708238 
L 298.744492 72.925383 
L 300.071341 72.149657 
L 301.39819 71.380867 
L 302.725038 70.618832 
L 304.051887 69.863376 
L 305.378736 69.114332 
L 306.705585 68.37154 
L 308.032434 67.634844 
L 309.359283 66.904098 
L 310.686132 66.17916 
L 312.012981 65.459894 
L 313.339829 64.746167 
L 314.666678 64.037855 
L 315.993527 63.334836 
L 317.320376 62.636993 
L 318.647225 61.944213 
L 319.974074 61.256388 
L 321.300923 60.573413 
L 322.627772 59.895186 
L 323.954621 59.22161 
L 325.281469 58.552591 
L 326.608318 57.888038 
L 327.935167 57.227861 
L 329.262016 56.571977 
L 330.588865 55.920301 
L 331.915714 55.272755 
L 333.242563 54.62926 
L 334.569412 53.989741 
L 335.89626 53.354127 
L 337.223109 52.722345 
L 338.549958 52.094328 
L 339.876807 51.470009 
L 341.203656 50.849324 
L 342.530505 50.232209 
L 343.857354 49.618604 
L 345.184203 49.00845 
L 346.511051 48.401688 
L 347.8379 47.798264 
L 349.164749 47.198122 
L 350.491598 46.60121 
L 351.818447 46.007477 
L 353.145296 45.41687 
L 354.472145 44.829343 
L 355.798994 44.244847 
L 357.125843 43.663336 
L 358.452691 43.084764 
" clip-path="url(#p14c3eaee0d)" style="fill: none; stroke: #4c72b0; stroke-width: 1.5; stroke-linecap: round"/>
   </g>
   <g id="patch_6">
    <path d="M 220.52675 154.010312 
L 220.52675 37.802595 
" style="fill: none; stroke: #262626; stroke-width: 1.25; stroke-linejoin: miter; stroke-linecap: square"/>
   </g>
   <g id="patch_7">
    <path d="M 220.52675 154.010312 
L 365.020593 154.010312 
" style="fill: none; stroke: #262626; stroke-width: 1.25; stroke-linejoin: miter; stroke-linecap: square"/>
   </g>
   <g id="text_17">
    <!-- sqrt -->
    <g style="fill: #262626" transform="translate(281.565859 31.802595) scale(0.12 -0.12)">
     <defs>
      <path id="Inter-Regular-73" d="M 2964 2709 
C 2796 3205 2418 3536 1727 3536 
C 991 3536 446 3118 446 2527 
C 446 2045 732 1723 1373 1573 
L 1955 1436 
C 2307 1355 2473 1186 2473 945 
C 2473 645 2155 400 1655 400 
C 1216 400 941 589 846 964 
L 336 836 
C 461 243 950 -73 1664 -73 
C 2475 -73 3027 370 3027 973 
C 3027 1459 2723 1766 2100 1918 
L 1582 2045 
C 1168 2148 982 2286 982 2555 
C 982 2855 1300 3073 1727 3073 
C 2196 3073 2389 2814 2482 2573 
L 2964 2709 
z
" transform="scale(0.015625)"/>
      <path id="Inter-Regular-71" d="M 2873 -1309 
L 3409 -1309 
L 3409 3491 
L 2891 3491 
L 2891 2936 
L 2827 2936 
C 2709 3118 2500 3536 1818 3536 
C 936 3536 327 2836 327 1736 
C 327 627 936 -73 1809 -73 
C 2482 -73 2709 345 2827 536 
L 2873 536 
L 2873 -1309 
z
M 1882 409 
C 1209 409 864 1000 864 1745 
C 864 2482 1200 3055 1882 3055 
C 2536 3055 2882 2527 2882 1745 
C 2882 955 2527 409 1882 409 
z
" transform="scale(0.015625)"/>
      <path id="Inter-Regular-72" d="M 491 0 
L 1027 0 
L 1027 2209 
C 1027 2682 1400 3027 1909 3027 
C 2052 3027 2200 3000 2236 2991 
L 2236 3536 
C 2175 3541 2034 3545 1955 3545 
C 1536 3545 1173 3309 1046 2964 
L 1009 2964 
L 1009 3491 
L 491 3491 
L 491 0 
z
" transform="scale(0.015625)"/>
      <path id="Inter-Regular-74" d="M 2009 3491 
L 1264 3491 
L 1264 4327 
L 727 4327 
L 727 3491 
L 200 3491 
L 200 3036 
L 727 3036 
L 727 855 
C 727 245 1218 -45 1673 -45 
C 1873 -45 2000 -9 2073 18 
L 1964 500 
C 1918 491 1846 473 1727 473 
C 1491 473 1264 545 1264 1000 
L 1264 3036 
L 2009 3036 
L 2009 3491 
z
" transform="scale(0.015625)"/>
     </defs>
     <use xlink:href="#Inter-Regular-73"/>
     <use xlink:href="#Inter-Regular-71" transform="translate(52.272736 0)"/>
     <use xlink:href="#Inter-Regular-72" transform="translate(113.210251 0)"/>
     <use xlink:href="#Inter-Regular-74" transform="translate(150.426163 0)"/>
    </g>
   </g>
  </g>
  <g id="axes_3">
   <g id="patch_8">
    <path d="M 392.505917 154.010312 
L 536.99976 154.010312 
L 536.99976 37.802595 
L 392.505917 37.802595 
z
" style="fill: #ffffff"/>
   </g>
   <g id="matplotlib.axis_5">
    <g id="xtick_9">
     <g id="text_18">
      <!-- 0 -->
      <g style="fill: #262626" transform="translate(394.754721 171.511094) scale(0.11 -0.11)">
       <use xlink:href="#Inter-Regular-30"/>
      </g>
     </g>
    </g>
    <g id="xtick_10">
     <g id="text_19">
      <!-- 5 -->
      <g style="fill: #262626" transform="translate(438.928272 171.511094) scale(0.11 -0.11)">
       <use xlink:href="#Inter-Regular-35"/>
      </g>
     </g>
    </g>
    <g id="xtick_11">
     <g id="text_20">
      <!-- 10 -->
      <g style="fill: #262626" transform="translate(480.359557 171.511094) scale(0.11 -0.11)">
       <use xlink:href="#Inter-Regular-31"/>
       <use xlink:href="#Inter-Regular-30" transform="translate(46.448868 0)"/>
      </g>
     </g>
    </g>
    <g id="xtick_12">
     <g id="text_21">
      <!-- 15 -->
      <g style="fill: #262626" transform="translate(524.533108 171.511094) scale(0.11 -0.11)">
       <use xlink:href="#Inter-Regular-31"/>
       <use xlink:href="#Inter-Regular-35" transform="translate(46.448868 0)"/>
      </g>
     </g>
    </g>
   </g>
   <g id="matplotlib.axis_6">
    <g id="ytick_8">
     <g id="text_22">
      <!-- 0 -->
      <g style="fill: #262626" transform="translate(376.130917 153.43755) scale(0.11 -0.11)">
       <use xlink:href="#Inter-Regular-30"/>
      </g>
     </g>
    </g>
    <g id="ytick_9">
     <g id="text_23">
      <!-- 5 -->
      <g style="fill: #262626" transform="translate(376.318261 117.986752) scale(0.11 -0.11)">
       <use xlink:href="#Inter-Regular-35"/>
      </g>
     </g>
    </g>
    <g id="ytick_10">
     <g id="text_24">
      <!-- 10 -->
      <g style="fill: #262626" transform="translate(371.021073 82.535953) scale(0.11 -0.11)">
       <use xlink:href="#Inter-Regular-31"/>
       <use xlink:href="#Inter-Regular-30" transform="translate(46.448868 0)"/>
      </g>
     </g>
    </g>
    <g id="ytick_11">
     <g id="text_25">
      <!-- 15 -->
      <g style="fill: #262626" transform="translate(371.208417 47.085155) scale(0.11 -0.11)">
       <use xlink:href="#Inter-Regular-31"/>
       <use xlink:href="#Inter-Regular-35" transform="translate(46.448868 0)"/>
      </g>
     </g>
    </g>
   </g>
   <g id="line2d_3">
    <path d="M 399.073819 148.728144 
L 400.400668 147.661039 
L 401.727517 146.593934 
L 403.054366 145.526829 
L 404.381215 144.459724 
L 405.708063 143.392619 
L 407.034912 142.325514 
L 408.361761 141.25841 
L 409.68861 140.191305 
L 411.015459 139.1242 
L 412.342308 138.057095 
L 413.669157 136.98999 
L 414.996006 135.922885 
L 416.322854 134.855781 
L 417.649703 133.788676 
L 418.976552 132.721571 
L 420.303401 131.654466 
L 421.63025 130.587361 
L 422.957099 129.520256 
L 424.283948 128.453151 
L 425.610797 127.386047 
L 426.937645 126.318942 
L 428.264494 125.251837 
L 429.591343 124.184732 
L 430.918192 123.117627 
L 432.245041 122.050522 
L 433.57189 120.983418 
L 434.898739 119.916313 
L 436.225588 118.849208 
L 437.552437 117.782103 
L 438.879285 116.714998 
L 440.206134 115.647893 
L 441.532983 114.580789 
L 442.859832 113.513684 
L 444.186681 112.446579 
L 445.51353 111.379474 
L 446.840379 110.312369 
L 448.167228 109.245264 
L 449.494076 108.178159 
L 450.820925 107.111055 
L 452.147774 106.04395 
L 453.474623 104.976845 
L 454.801472 103.90974 
L 456.128321 102.842635 
L 457.45517 101.77553 
L 458.782019 100.708426 
L 460.108867 99.641321 
L 461.435716 98.574216 
L 462.762565 97.507111 
L 464.089414 96.440006 
L 465.416263 95.372901 
L 466.743112 94.305796 
L 468.069961 93.238692 
L 469.39681 92.171587 
L 470.723658 91.104482 
L 472.050507 90.037377 
L 473.377356 88.970272 
L 474.704205 87.903167 
L 476.031054 86.836063 
L 477.357903 85.768958 
L 478.684752 84.701853 
L 480.011601 83.634748 
L 481.33845 82.567643 
L 482.665298 81.500538 
L 483.992147 80.433434 
L 485.318996 79.366329 
L 486.645845 78.299224 
L 487.972694 77.232119 
L 489.299543 76.165014 
L 490.626392 75.097909 
L 491.953241 74.030804 
L 493.280089 72.9637 
L 494.606938 71.896595 
L 495.933787 70.82949 
L 497.260636 69.762385 
L 498.587485 68.69528 
L 499.914334 67.628175 
L 501.241183 66.561071 
L 502.568032 65.493966 
L 503.89488 64.426861 
L 505.221729 63.359756 
L 506.548578 62.292651 
L 507.875427 61.225546 
L 509.202276 60.158441 
L 510.529125 59.091337 
L 511.855974 58.024232 
L 513.182823 56.957127 
L 514.509672 55.890022 
L 515.83652 54.822917 
L 517.163369 53.755812 
L 518.490218 52.688708 
L 519.817067 51.621603 
L 521.143916 50.554498 
L 522.470765 49.487393 
L 523.797614 48.420288 
L 525.124463 47.353183 
L 526.451311 46.286079 
L 527.77816 45.218974 
L 529.105009 44.151869 
L 530.431858 43.084764 
" clip-path="url(#pfa7b687da5)" style="fill: none; stroke: #4c72b0; stroke-width: 1.5; stroke-linecap: round"/>
   </g>
   <g id="patch_9">
    <path d="M 392.505917 154.010312 
L 392.505917 37.802595 
" style="fill: none; stroke: #262626; stroke-width: 1.25; stroke-linejoin: miter; stroke-linecap: square"/>
   </g>
   <g id="patch_10">
    <path d="M 392.505917 154.010312 
L 536.99976 154.010312 
" style="fill: none; stroke: #262626; stroke-width: 1.25; stroke-linejoin: miter; stroke-linecap: square"/>
   </g>
   <g id="text_26">
    <!-- linear -->
    <g style="fill: #262626" transform="translate(449.284089 31.802595) scale(0.12 -0.12)">
     <defs>
      <path id="Inter-Regular-69" d="M 491 0 
L 1027 0 
L 1027 3491 
L 491 3491 
L 491 0 
z
M 764 4073 
C 973 4073 1146 4236 1146 4436 
C 1146 4636 973 4800 764 4800 
C 555 4800 382 4636 382 4436 
C 382 4236 555 4073 764 4073 
z
" transform="scale(0.015625)"/>
      <path id="Inter-Regular-65" d="M 1955 -73 
C 2664 -73 3182 282 3346 809 
L 2827 955 
C 2691 591 2375 409 1955 409 
C 1325 409 891 816 866 1564 
L 3400 1564 
L 3400 1791 
C 3400 3091 2627 3536 1900 3536 
C 955 3536 327 2791 327 1718 
C 327 645 946 -73 1955 -73 
z
M 866 2027 
C 902 2570 1286 3055 1900 3055 
C 2482 3055 2855 2618 2855 2027 
L 866 2027 
z
" transform="scale(0.015625)"/>
      <path id="Inter-Regular-61" d="M 1518 -82 
C 2127 -82 2446 245 2555 473 
L 2582 473 
L 2582 0 
L 3118 0 
L 3118 2300 
C 3118 3409 2273 3536 1827 3536 
C 1300 3536 700 3355 427 2718 
L 936 2536 
C 1055 2791 1334 3064 1846 3064 
C 2339 3064 2582 2802 2582 2355 
L 2582 2336 
C 2582 2077 2318 2100 1682 2018 
C 1034 1934 327 1791 327 991 
C 327 309 855 -82 1518 -82 
z
M 1600 400 
C 1173 400 864 591 864 964 
C 864 1373 1236 1500 1655 1555 
C 1882 1582 2491 1645 2582 1755 
L 2582 1264 
C 2582 827 2236 400 1600 400 
z
" transform="scale(0.015625)"/>
     </defs>
     <use xlink:href="#Inter-Regular-6c"/>
     <use xlink:href="#Inter-Regular-69" transform="translate(23.721588 0)"/>
     <use xlink:href="#Inter-Regular-6e" transform="translate(47.443176 0)"/>
     <use xlink:href="#Inter-Regular-65" transform="translate(105.965912 0)"/>
     <use xlink:href="#Inter-Regular-61" transform="translate(164.204559 0)"/>
     <use xlink:href="#Inter-Regular-72" transform="translate(220.596619 0)"/>
    </g>
   </g>
  </g>
  <g id="axes_4">
   <g id="patch_11">
    <path d="M 32.906959 310.969135 
L 177.400802 310.969135 
L 177.400802 194.761417 
L 32.906959 194.761417 
z
" style="fill: #ffffff"/>
   </g>
   <g id="matplotlib.axis_7">
    <g id="xtick_13">
     <g id="text_27">
      <!-- 0 -->
      <g style="fill: #262626" transform="translate(35.155763 328.469916) scale(0.11 -0.11)">
       <use xlink:href="#Inter-Regular-30"/>
      </g>
     </g>
    </g>
    <g id="xtick_14">
     <g id="text_28">
      <!-- 5 -->
      <g style="fill: #262626" transform="translate(79.329314 328.469916) scale(0.11 -0.11)">
       <use xlink:href="#Inter-Regular-35"/>
      </g>
     </g>
    </g>
    <g id="xtick_15">
     <g id="text_29">
      <!-- 10 -->
      <g style="fill: #262626" transform="translate(120.760599 328.469916) scale(0.11 -0.11)">
       <use xlink:href="#Inter-Regular-31"/>
       <use xlink:href="#Inter-Regular-30" transform="translate(46.448868 0)"/>
      </g>
     </g>
    </g>
    <g id="xtick_16">
     <g id="text_30">
      <!-- 15 -->
      <g style="fill: #262626" transform="translate(164.93415 328.469916) scale(0.11 -0.11)">
       <use xlink:href="#Inter-Regular-31"/>
       <use xlink:href="#Inter-Regular-35" transform="translate(46.448868 0)"/>
      </g>
     </g>
    </g>
   </g>
   <g id="matplotlib.axis_8">
    <g id="ytick_12">
     <g id="text_31">
      <!-- 0 -->
      <g style="fill: #262626" transform="translate(16.531959 309.692052) scale(0.11 -0.11)">
       <use xlink:href="#Inter-Regular-30"/>
      </g>
     </g>
    </g>
    <g id="ytick_13">
     <g id="text_32">
      <!-- 50 -->
      <g style="fill: #262626" transform="translate(9.844302 286.214702) scale(0.11 -0.11)">
       <use xlink:href="#Inter-Regular-35"/>
       <use xlink:href="#Inter-Regular-30" transform="translate(60.795471 0)"/>
      </g>
     </g>
    </g>
    <g id="ytick_14">
     <g id="text_33">
      <!-- 100 -->
      <g style="fill: #262626" transform="translate(4.547115 262.737352) scale(0.11 -0.11)">
       <use xlink:href="#Inter-Regular-31"/>
       <use xlink:href="#Inter-Regular-30" transform="translate(46.448868 0)"/>
       <use xlink:href="#Inter-Regular-30" transform="translate(108.948883 0)"/>
      </g>
     </g>
    </g>
    <g id="ytick_15">
     <g id="text_34">
      <!-- 150 -->
      <g style="fill: #262626" transform="translate(4.734459 239.260002) scale(0.11 -0.11)">
       <use xlink:href="#Inter-Regular-31"/>
       <use xlink:href="#Inter-Regular-35" transform="translate(46.448868 0)"/>
       <use xlink:href="#Inter-Regular-30" transform="translate(107.244339 0)"/>
      </g>
     </g>
    </g>
    <g id="ytick_16">
     <g id="text_35">
      <!-- 200 -->
      <g style="fill: #262626" transform="translate(3.00024 215.782652) scale(0.11 -0.11)">
       <use xlink:href="#Inter-Regular-32"/>
       <use xlink:href="#Inter-Regular-30" transform="translate(60.511383 0)"/>
       <use xlink:href="#Inter-Regular-30" transform="translate(123.011398 0)"/>
      </g>
     </g>
    </g>
   </g>
   <g id="line2d_4">
    <path d="M 39.474861 305.686966 
L 40.80171 305.662196 
L 42.128558 305.616154 
L 43.455407 305.54884 
L 44.782256 305.460254 
L 46.109105 305.350395 
L 47.435954 305.219264 
L 48.762803 305.066862 
L 50.089652 304.893187 
L 51.416501 304.69824 
L 52.743349 304.482021 
L 54.070198 304.244529 
L 55.397047 303.985766 
L 56.723896 303.70573 
L 58.050745 303.404422 
L 59.377594 303.081843 
L 60.704443 302.73799 
L 62.031292 302.372866 
L 63.358141 301.98647 
L 64.684989 301.578802 
L 66.011838 301.149861 
L 67.338687 300.699648 
L 68.665536 300.228163 
L 69.992385 299.735406 
L 71.319234 299.221377 
L 72.646083 298.686076 
L 73.972932 298.129502 
L 75.29978 297.551657 
L 76.626629 296.952539 
L 77.953478 296.332149 
L 79.280327 295.690487 
L 80.607176 295.027553 
L 81.934025 294.343347 
L 83.260874 293.637868 
L 84.587723 292.911118 
L 85.914571 292.163095 
L 87.24142 291.3938 
L 88.568269 290.603233 
L 89.895118 289.791394 
L 91.221967 288.958283 
L 92.548816 288.103899 
L 93.875665 287.228244 
L 95.202514 286.331316 
L 96.529362 285.413116 
L 97.856211 284.473644 
L 99.18306 283.5129 
L 100.509909 282.530884 
L 101.836758 281.527595 
L 103.163607 280.503035 
L 104.490456 279.457202 
L 105.817305 278.390097 
L 107.144154 277.30172 
L 108.471002 276.192071 
L 109.797851 275.06115 
L 111.1247 273.908956 
L 112.451549 272.735491 
L 113.778398 271.540753 
L 115.105247 270.324743 
L 116.432096 269.087461 
L 117.758945 267.828907 
L 119.085793 266.549081 
L 120.412642 265.247983 
L 121.739491 263.925612 
L 123.06634 262.581969 
L 124.393189 261.217055 
L 125.720038 259.830868 
L 127.046887 258.423408 
L 128.373736 256.994677 
L 129.700584 255.544674 
L 131.027433 254.073398 
L 132.354282 252.580851 
L 133.681131 251.067031 
L 135.00798 249.531939 
L 136.334829 247.975575 
L 137.661678 246.397938 
L 138.988527 244.79903 
L 140.315376 243.17885 
L 141.642224 241.537397 
L 142.969073 239.874672 
L 144.295922 238.190675 
L 145.622771 236.485406 
L 146.94962 234.758865 
L 148.276469 233.011051 
L 149.603318 231.241966 
L 150.930167 229.451608 
L 152.257015 227.639978 
L 153.583864 225.807077 
L 154.910713 223.952902 
L 156.237562 222.077456 
L 157.564411 220.180738 
L 158.89126 218.262747 
L 160.218109 216.323485 
L 161.544958 214.36295 
L 162.871806 212.381143 
L 164.198655 210.378064 
L 165.525504 208.353713 
L 166.852353 206.308089 
L 168.179202 204.241194 
L 169.506051 202.153026 
L 170.8329 200.043586 
" clip-path="url(#pa9e15fbe39)" style="fill: none; stroke: #4c72b0; stroke-width: 1.5; stroke-linecap: round"/>
   </g>
   <g id="patch_12">
    <path d="M 32.906959 310.969135 
L 32.906959 194.761417 
" style="fill: none; stroke: #262626; stroke-width: 1.25; stroke-linejoin: miter; stroke-linecap: square"/>
   </g>
   <g id="patch_13">
    <path d="M 32.906959 310.969135 
L 177.400802 310.969135 
" style="fill: none; stroke: #262626; stroke-width: 1.25; stroke-linejoin: miter; stroke-linecap: square"/>
   </g>
   <g id="text_36">
    <!-- quadratic -->
    <g style="fill: #262626" transform="translate(78.332943 188.761417) scale(0.12 -0.12)">
     <defs>
      <path id="Inter-Regular-75" d="M 2691 1427 
C 2691 773 2191 473 1791 473 
C 1346 473 1027 800 1027 1309 
L 1027 3491 
L 491 3491 
L 491 1273 
C 491 382 964 -45 1618 -45 
C 2146 -45 2491 236 2655 591 
L 2691 591 
L 2691 0 
L 3227 0 
L 3227 3491 
L 2691 3491 
L 2691 1427 
z
" transform="scale(0.015625)"/>
      <path id="Inter-Regular-64" d="M 1809 -73 
C 2482 -73 2709 345 2827 536 
L 2891 536 
L 2891 0 
L 3409 0 
L 3409 4655 
L 2873 4655 
L 2873 2936 
L 2827 2936 
C 2709 3118 2500 3536 1818 3536 
C 936 3536 327 2836 327 1736 
C 327 627 936 -73 1809 -73 
z
M 1882 409 
C 1209 409 864 1000 864 1745 
C 864 2482 1200 3055 1882 3055 
C 2536 3055 2882 2527 2882 1745 
C 2882 955 2527 409 1882 409 
z
" transform="scale(0.015625)"/>
      <path id="Inter-Regular-63" d="M 1909 -73 
C 2682 -73 3191 400 3282 1018 
L 2746 1018 
C 2646 636 2327 409 1909 409 
C 1273 409 864 936 864 1745 
C 864 2536 1282 3055 1909 3055 
C 2382 3055 2664 2764 2746 2445 
L 3282 2445 
C 3191 3100 2636 3536 1900 3536 
C 955 3536 327 2791 327 1727 
C 327 682 927 -73 1909 -73 
z
" transform="scale(0.015625)"/>
     </defs>
     <use xlink:href="#Inter-Regular-71"/>
     <use xlink:href="#Inter-Regular-75" transform="translate(60.937515 0)"/>
     <use xlink:href="#Inter-Regular-61" transform="translate(119.034119 0)"/>
     <use xlink:href="#Inter-Regular-64" transform="translate(175.426178 0)"/>
     <use xlink:href="#Inter-Regular-72" transform="translate(237.500061 0)"/>
     <use xlink:href="#Inter-Regular-61" transform="translate(274.715973 0)"/>
     <use xlink:href="#Inter-Regular-74" transform="translate(331.108032 0)"/>
     <use xlink:href="#Inter-Regular-69" transform="translate(367.47168 0)"/>
     <use xlink:href="#Inter-Regular-63" transform="translate(391.193268 0)"/>
    </g>
   </g>
  </g>
  <g id="axes_5">
   <g id="patch_14">
    <path d="M 220.52675 310.969135 
L 365.020593 310.969135 
L 365.020593 194.761417 
L 220.52675 194.761417 
z
" style="fill: #ffffff"/>
   </g>
   <g id="matplotlib.axis_9">
    <g id="xtick_17">
     <g id="text_37">
      <!-- 0 -->
      <g style="fill: #262626" transform="translate(222.775555 328.469916) scale(0.11 -0.11)">
       <use xlink:href="#Inter-Regular-30"/>
      </g>
     </g>
    </g>
    <g id="xtick_18">
     <g id="text_38">
      <!-- 5 -->
      <g style="fill: #262626" transform="translate(266.949106 328.469916) scale(0.11 -0.11)">
       <use xlink:href="#Inter-Regular-35"/>
      </g>
     </g>
    </g>
    <g id="xtick_19">
     <g id="text_39">
      <!-- 10 -->
      <g style="fill: #262626" transform="translate(308.380391 328.469916) scale(0.11 -0.11)">
       <use xlink:href="#Inter-Regular-31"/>
       <use xlink:href="#Inter-Regular-30" transform="translate(46.448868 0)"/>
      </g>
     </g>
    </g>
    <g id="xtick_20">
     <g id="text_40">
      <!-- 15 -->
      <g style="fill: #262626" transform="translate(352.553941 328.469916) scale(0.11 -0.11)">
       <use xlink:href="#Inter-Regular-31"/>
       <use xlink:href="#Inter-Regular-35" transform="translate(46.448868 0)"/>
      </g>
     </g>
    </g>
   </g>
   <g id="matplotlib.axis_10">
    <g id="ytick_17">
     <g id="text_41">
      <!-- 0 -->
      <g style="fill: #262626" transform="translate(204.15175 309.687388) scale(0.11 -0.11)">
       <use xlink:href="#Inter-Regular-30"/>
      </g>
     </g>
    </g>
    <g id="ytick_18">
     <g id="text_42">
      <!-- 1000 -->
      <g style="fill: #262626" transform="translate(185.291907 278.385637) scale(0.11 -0.11)">
       <use xlink:href="#Inter-Regular-31"/>
       <use xlink:href="#Inter-Regular-30" transform="translate(46.448868 0)"/>
       <use xlink:href="#Inter-Regular-30" transform="translate(108.948883 0)"/>
       <use xlink:href="#Inter-Regular-30" transform="translate(171.448898 0)"/>
      </g>
     </g>
    </g>
    <g id="ytick_19">
     <g id="text_43">
      <!-- 2000 -->
      <g style="fill: #262626" transform="translate(183.745032 247.083885) scale(0.11 -0.11)">
       <use xlink:href="#Inter-Regular-32"/>
       <use xlink:href="#Inter-Regular-30" transform="translate(60.511383 0)"/>
       <use xlink:href="#Inter-Regular-30" transform="translate(123.011398 0)"/>
       <use xlink:href="#Inter-Regular-30" transform="translate(185.511414 0)"/>
      </g>
     </g>
    </g>
    <g id="ytick_20">
     <g id="text_44">
      <!-- 3000 -->
      <g style="fill: #262626" transform="translate(183.401282 215.782134) scale(0.11 -0.11)">
       <use xlink:href="#Inter-Regular-33"/>
       <use xlink:href="#Inter-Regular-30" transform="translate(63.636383 0)"/>
       <use xlink:href="#Inter-Regular-30" transform="translate(126.136398 0)"/>
       <use xlink:href="#Inter-Regular-30" transform="translate(188.636414 0)"/>
      </g>
     </g>
    </g>
   </g>
   <g id="line2d_5">
    <path d="M 227.094652 305.686966 
L 228.421501 305.686505 
L 229.74835 305.684979 
L 231.075199 305.681746 
L 232.402048 305.676168 
L 233.728897 305.667602 
L 235.055746 305.65541 
L 236.382595 305.638951 
L 237.709443 305.617584 
L 239.036292 305.59067 
L 240.363141 305.557567 
L 241.68999 305.517637 
L 243.016839 305.470238 
L 244.343688 305.414729 
L 245.670537 305.350472 
L 246.997386 305.276826 
L 248.324234 305.193149 
L 249.651083 305.098803 
L 250.977932 304.993147 
L 252.304781 304.87554 
L 253.63163 304.745342 
L 254.958479 304.601913 
L 256.285328 304.444612 
L 257.612177 304.2728 
L 258.939025 304.085836 
L 260.265874 303.88308 
L 261.592723 303.663891 
L 262.919572 303.427629 
L 264.246421 303.173654 
L 265.57327 302.901326 
L 266.900119 302.610004 
L 268.226968 302.299048 
L 269.553816 301.967818 
L 270.880665 301.615674 
L 272.207514 301.241974 
L 273.534363 300.84608 
L 274.861212 300.42735 
L 276.188061 299.985144 
L 277.51491 299.518822 
L 278.841759 299.027745 
L 280.168608 298.51127 
L 281.495456 297.968759 
L 282.822305 297.399571 
L 284.149154 296.803065 
L 285.476003 296.178602 
L 286.802852 295.525541 
L 288.129701 294.843241 
L 289.45655 294.131063 
L 290.783399 293.388366 
L 292.110247 292.61451 
L 293.437096 291.808855 
L 294.763945 290.97076 
L 296.090794 290.099585 
L 297.417643 289.19469 
L 298.744492 288.255435 
L 300.071341 287.281178 
L 301.39819 286.271281 
L 302.725038 285.225102 
L 304.051887 284.142001 
L 305.378736 283.021339 
L 306.705585 281.862474 
L 308.032434 280.664767 
L 309.359283 279.427577 
L 310.686132 278.150264 
L 312.012981 276.832188 
L 313.339829 275.472708 
L 314.666678 274.071184 
L 315.993527 272.626976 
L 317.320376 271.139443 
L 318.647225 269.607946 
L 319.974074 268.031843 
L 321.300923 266.410495 
L 322.627772 264.743262 
L 323.954621 263.029502 
L 325.281469 261.268577 
L 326.608318 259.459845 
L 327.935167 257.602666 
L 329.262016 255.6964 
L 330.588865 253.740406 
L 331.915714 251.734045 
L 333.242563 249.676677 
L 334.569412 247.56766 
L 335.89626 245.406354 
L 337.223109 243.19212 
L 338.549958 240.924316 
L 339.876807 238.602304 
L 341.203656 236.225441 
L 342.530505 233.793089 
L 343.857354 231.304607 
L 345.184203 228.759354 
L 346.511051 226.15669 
L 347.8379 223.495976 
L 349.164749 220.77657 
L 350.491598 217.997832 
L 351.818447 215.159123 
L 353.145296 212.259801 
L 354.472145 209.299227 
L 355.798994 206.27676 
L 357.125843 203.19176 
L 358.452691 200.043586 
" clip-path="url(#pf31e743935)" style="fill: none; stroke: #4c72b0; stroke-width: 1.5; stroke-linecap: round"/>
   </g>
   <g id="patch_15">
    <path d="M 220.52675 310.969135 
L 220.52675 194.761417 
" style="fill: none; stroke: #262626; stroke-width: 1.25; stroke-linejoin: miter; stroke-linecap: square"/>
   </g>
   <g id="patch_16">
    <path d="M 220.52675 310.969135 
L 365.020593 310.969135 
" style="fill: none; stroke: #262626; stroke-width: 1.25; stroke-linejoin: miter; stroke-linecap: square"/>
   </g>
   <g id="text_45">
    <!-- cubic -->
    <g style="fill: #262626" transform="translate(277.440859 188.761417) scale(0.12 -0.12)">
     <defs>
      <path id="Inter-Regular-62" d="M 564 0 
L 1082 0 
L 1082 536 
L 1146 536 
C 1264 345 1491 -73 2164 -73 
C 3036 -73 3646 627 3646 1736 
C 3646 2836 3036 3536 2155 3536 
C 1473 3536 1264 3118 1146 2936 
L 1100 2936 
L 1100 4655 
L 564 4655 
L 564 0 
z
M 1091 1745 
C 1091 2527 1436 3055 2091 3055 
C 2773 3055 3109 2482 3109 1745 
C 3109 1000 2764 409 2091 409 
C 1446 409 1091 955 1091 1745 
z
" transform="scale(0.015625)"/>
     </defs>
     <use xlink:href="#Inter-Regular-63"/>
     <use xlink:href="#Inter-Regular-75" transform="translate(55.823868 0)"/>
     <use xlink:href="#Inter-Regular-62" transform="translate(113.920471 0)"/>
     <use xlink:href="#Inter-Regular-69" transform="translate(175.994354 0)"/>
     <use xlink:href="#Inter-Regular-63" transform="translate(199.715942 0)"/>
    </g>
   </g>
  </g>
  <g id="axes_6">
   <g id="patch_17">
    <path d="M 392.505917 310.969135 
L 536.99976 310.969135 
L 536.99976 194.761417 
L 392.505917 194.761417 
z
" style="fill: #ffffff"/>
   </g>
   <g id="matplotlib.axis_11">
    <g id="xtick_21">
     <g id="text_46">
      <!-- 0 -->
      <g style="fill: #262626" transform="translate(394.754721 328.469916) scale(0.11 -0.11)">
       <use xlink:href="#Inter-Regular-30"/>
      </g>
     </g>
    </g>
    <g id="xtick_22">
     <g id="text_47">
      <!-- 5 -->
      <g style="fill: #262626" transform="translate(438.928272 328.469916) scale(0.11 -0.11)">
       <use xlink:href="#Inter-Regular-35"/>
      </g>
     </g>
    </g>
    <g id="xtick_23">
     <g id="text_48">
      <!-- 10 -->
      <g style="fill: #262626" transform="translate(480.359557 328.469916) scale(0.11 -0.11)">
       <use xlink:href="#Inter-Regular-31"/>
       <use xlink:href="#Inter-Regular-30" transform="translate(46.448868 0)"/>
      </g>
     </g>
    </g>
    <g id="xtick_24">
     <g id="text_49">
      <!-- 15 -->
      <g style="fill: #262626" transform="translate(524.533108 328.469916) scale(0.11 -0.11)">
       <use xlink:href="#Inter-Regular-31"/>
       <use xlink:href="#Inter-Regular-35" transform="translate(46.448868 0)"/>
      </g>
     </g>
    </g>
   </g>
   <g id="matplotlib.axis_12">
    <g id="ytick_21">
     <g id="text_50">
      <!-- 0 -->
      <g style="fill: #262626" transform="translate(376.130917 309.687392) scale(0.11 -0.11)">
       <use xlink:href="#Inter-Regular-30"/>
      </g>
     </g>
    </g>
    <g id="ytick_22">
     <g id="text_51">
      <!-- 1 -->
      <g style="fill: #262626" transform="translate(377.896073 277.370826) scale(0.11 -0.11)">
       <use xlink:href="#Inter-Regular-31"/>
      </g>
     </g>
    </g>
    <g id="ytick_23">
     <g id="text_52">
      <!-- 2 -->
      <g style="fill: #262626" transform="translate(376.349198 245.054261) scale(0.11 -0.11)">
       <use xlink:href="#Inter-Regular-32"/>
      </g>
     </g>
    </g>
    <g id="ytick_24">
     <g id="text_53">
      <!-- 3 -->
      <g style="fill: #262626" transform="translate(376.005448 212.737695) scale(0.11 -0.11)">
       <use xlink:href="#Inter-Regular-33"/>
      </g>
     </g>
    </g>
    <g id="text_54">
     <!-- 1e6 -->
     <g style="fill: #262626" transform="translate(392.505917 191.761417) scale(0.11 -0.11)">
      <defs>
       <path id="Inter-Regular-36" d="M 2027 -64 
C 2968 -75 3582 634 3582 1500 
C 3582 2400 2916 3045 2118 3045 
C 1639 3045 1227 2811 973 2427 
L 936 2427 
C 939 3561 1380 4218 2100 4218 
C 2591 4218 2886 3909 2991 3491 
L 3546 3491 
C 3432 4214 2882 4718 2100 4718 
C 1052 4718 409 3791 409 2145 
C 409 425 1264 -55 2027 -64 
z
M 2027 436 
C 1443 436 1016 934 1018 1491 
C 1021 2048 1468 2545 2046 2545 
C 2616 2545 3036 2077 3036 1500 
C 3036 909 2598 436 2027 436 
z
" transform="scale(0.015625)"/>
      </defs>
      <use xlink:href="#Inter-Regular-31"/>
      <use xlink:href="#Inter-Regular-65" transform="translate(46.448868 0)"/>
      <use xlink:href="#Inter-Regular-36" transform="translate(104.687515 0)"/>
     </g>
    </g>
   </g>
   <g id="line2d_6">
    <path d="M 399.073819 305.686966 
L 400.400668 305.68696 
L 401.727517 305.686953 
L 403.054366 305.686946 
L 404.381215 305.686937 
L 405.708063 305.686926 
L 407.034912 305.686914 
L 408.361761 305.686899 
L 409.68861 305.686883 
L 411.015459 305.686863 
L 412.342308 305.686841 
L 413.669157 305.686815 
L 414.996006 305.686784 
L 416.322854 305.686749 
L 417.649703 305.686708 
L 418.976552 305.68666 
L 420.303401 305.686605 
L 421.63025 305.68654 
L 422.957099 305.686465 
L 424.283948 305.686378 
L 425.610797 305.686277 
L 426.937645 305.686159 
L 428.264494 305.686023 
L 429.591343 305.685864 
L 430.918192 305.685679 
L 432.245041 305.685464 
L 433.57189 305.685214 
L 434.898739 305.684924 
L 436.225588 305.684586 
L 437.552437 305.684194 
L 438.879285 305.683738 
L 440.206134 305.683208 
L 441.532983 305.682591 
L 442.859832 305.681875 
L 444.186681 305.681042 
L 445.51353 305.680074 
L 446.840379 305.678949 
L 448.167228 305.677641 
L 449.494076 305.676121 
L 450.820925 305.674353 
L 452.147774 305.672299 
L 453.474623 305.669911 
L 454.801472 305.667135 
L 456.128321 305.663908 
L 457.45517 305.660158 
L 458.782019 305.655798 
L 460.108867 305.650729 
L 461.435716 305.644838 
L 462.762565 305.63799 
L 464.089414 305.630029 
L 465.416263 305.620775 
L 466.743112 305.610019 
L 468.069961 305.597515 
L 469.39681 305.582981 
L 470.723658 305.566086 
L 472.050507 305.546446 
L 473.377356 305.523617 
L 474.704205 305.49708 
L 476.031054 305.466233 
L 477.357903 305.430375 
L 478.684752 305.388693 
L 480.011601 305.340242 
L 481.33845 305.283921 
L 482.665298 305.218452 
L 483.992147 305.142349 
L 485.318996 305.053886 
L 486.645845 304.951055 
L 487.972694 304.831521 
L 489.299543 304.692573 
L 490.626392 304.531057 
L 491.953241 304.343307 
L 493.280089 304.125063 
L 494.606938 303.871371 
L 495.933787 303.576474 
L 497.260636 303.233679 
L 498.587485 302.835208 
L 499.914334 302.372016 
L 501.241183 301.833592 
L 502.568032 301.207717 
L 503.89488 300.480186 
L 505.221729 299.634489 
L 506.548578 298.651433 
L 507.875427 297.508708 
L 509.202276 296.18038 
L 510.529125 294.636303 
L 511.855974 292.841436 
L 513.182823 290.755044 
L 514.509672 288.329777 
L 515.83652 285.510597 
L 517.163369 282.233521 
L 518.490218 278.424179 
L 519.817067 273.99612 
L 521.143916 268.848849 
L 522.470765 262.865553 
L 523.797614 255.910443 
L 525.124463 247.825676 
L 526.451311 238.427771 
L 527.77816 227.503448 
L 529.105009 214.804783 
L 530.431858 200.043586 
" clip-path="url(#p1b8e961d3a)" style="fill: none; stroke: #4c72b0; stroke-width: 1.5; stroke-linecap: round"/>
   </g>
   <g id="patch_18">
    <path d="M 392.505917 310.969135 
L 392.505917 194.761417 
" style="fill: none; stroke: #262626; stroke-width: 1.25; stroke-linejoin: miter; stroke-linecap: square"/>
   </g>
   <g id="patch_19">
    <path d="M 392.505917 310.969135 
L 536.99976 310.969135 
" style="fill: none; stroke: #262626; stroke-width: 1.25; stroke-linejoin: miter; stroke-linecap: square"/>
   </g>
   <g id="text_55">
    <!-- exponential -->
    <g style="fill: #262626" transform="translate(431.855026 188.761417) scale(0.12 -0.12)">
     <defs>
      <path id="Inter-Regular-78" d="M 891 3491 
L 273 3491 
L 1382 1745 
L 273 0 
L 891 0 
L 1727 1355 
L 2564 0 
L 3182 0 
L 2055 1745 
L 3182 3491 
L 2564 3491 
L 1727 2064 
L 891 3491 
z
" transform="scale(0.015625)"/>
      <path id="Inter-Regular-70" d="M 491 -1309 
L 1027 -1309 
L 1027 536 
L 1073 536 
C 1191 345 1418 -73 2091 -73 
C 2964 -73 3573 627 3573 1736 
C 3573 2836 2964 3536 2082 3536 
C 1400 3536 1191 3118 1073 2936 
L 1009 2936 
L 1009 3491 
L 491 3491 
L 491 -1309 
z
M 1018 1745 
C 1018 2527 1364 3055 2018 3055 
C 2700 3055 3036 2482 3036 1745 
C 3036 1000 2691 409 2018 409 
C 1373 409 1018 955 1018 1745 
z
" transform="scale(0.015625)"/>
     </defs>
     <use xlink:href="#Inter-Regular-65"/>
     <use xlink:href="#Inter-Regular-78" transform="translate(58.238647 0)"/>
     <use xlink:href="#Inter-Regular-70" transform="translate(112.215927 0)"/>
     <use xlink:href="#Inter-Regular-6f" transform="translate(173.153442 0)"/>
     <use xlink:href="#Inter-Regular-6e" transform="translate(232.812546 0)"/>
     <use xlink:href="#Inter-Regular-65" transform="translate(291.335281 0)"/>
     <use xlink:href="#Inter-Regular-6e" transform="translate(349.573929 0)"/>
     <use xlink:href="#Inter-Regular-74" transform="translate(408.096664 0)"/>
     <use xlink:href="#Inter-Regular-69" transform="translate(444.460312 0)"/>
     <use xlink:href="#Inter-Regular-61" transform="translate(468.1819 0)"/>
     <use xlink:href="#Inter-Regular-6c" transform="translate(524.573959 0)"/>
    </g>
   </g>
  </g>
  <g id="text_56">
   <!-- Common types of growth -->
   <g style="fill: #262626" transform="translate(183.414375 13.96449) scale(0.144 -0.144)">
    <defs>
     <path id="Inter-Regular-43" d="M 4309 3200 
C 4136 4155 3373 4718 2436 4718 
C 1246 4718 382 3800 382 2327 
C 382 855 1246 -64 2436 -64 
C 3373 -64 4136 500 4309 1455 
L 3746 1455 
C 3609 809 3055 464 2436 464 
C 1591 464 927 1118 927 2327 
C 927 3536 1591 4191 2436 4191 
C 3055 4191 3609 3845 3746 3200 
L 4309 3200 
z
" transform="scale(0.015625)"/>
     <path id="Inter-Regular-6d" d="M 491 0 
L 1027 0 
L 1027 2182 
C 1027 2693 1400 3055 1818 3055 
C 2225 3055 2509 2789 2509 2391 
L 2509 0 
L 3055 0 
L 3055 2273 
C 3055 2723 3336 3055 3827 3055 
C 4209 3055 4536 2852 4536 2336 
L 4536 0 
L 5073 0 
L 5073 2336 
C 5073 3157 4632 3536 4009 3536 
C 3509 3536 3143 3307 2964 2945 
L 2927 2945 
C 2755 3318 2450 3536 1991 3536 
C 1536 3536 1200 3318 1055 2945 
L 1009 2945 
L 1009 3491 
L 491 3491 
L 491 0 
z
" transform="scale(0.015625)"/>
     <path id="Inter-Regular-20" transform="scale(0.015625)"/>
     <path id="Inter-Regular-79" d="M 836 -1309 
C 1321 -1309 1661 -1052 1864 -509 
L 3346 3491 
L 2764 3491 
L 1800 709 
L 1764 709 
L 800 3491 
L 218 3491 
L 1509 -18 
L 1409 -291 
C 1214 -823 973 -873 582 -773 
L 446 -1245 
C 500 -1273 655 -1309 836 -1309 
z
" transform="scale(0.015625)"/>
     <path id="Inter-Regular-66" d="M 2046 3491 
L 1264 3491 
L 1264 3845 
C 1264 4191 1409 4373 1764 4373 
C 1918 4373 2009 4336 2064 4318 
L 2218 4782 
C 2136 4818 1973 4873 1709 4873 
C 1209 4873 727 4573 727 3973 
L 727 3491 
L 164 3491 
L 164 3036 
L 727 3036 
L 727 0 
L 1264 0 
L 1264 3036 
L 2046 3036 
L 2046 3491 
z
" transform="scale(0.015625)"/>
     <path id="Inter-Regular-77" d="M 1282 0 
L 1809 0 
L 2573 2682 
L 2627 2682 
L 3391 0 
L 3918 0 
L 4982 3491 
L 4418 3491 
L 3664 827 
L 3627 827 
L 2891 3491 
L 2318 3491 
L 1573 818 
L 1536 818 
L 782 3491 
L 218 3491 
L 1282 0 
z
" transform="scale(0.015625)"/>
     <path id="Inter-Regular-68" d="M 1027 2100 
C 1027 2709 1416 3055 1946 3055 
C 2450 3055 2755 2736 2755 2182 
L 2755 0 
L 3291 0 
L 3291 2218 
C 3291 3116 2814 3536 2100 3536 
C 1550 3536 1236 3307 1073 2945 
L 1027 2945 
L 1027 4655 
L 491 4655 
L 491 0 
L 1027 0 
L 1027 2100 
z
" transform="scale(0.015625)"/>
    </defs>
    <use xlink:href="#Inter-Regular-43"/>
    <use xlink:href="#Inter-Regular-6f" transform="translate(72.727295 0)"/>
    <use xlink:href="#Inter-Regular-6d" transform="translate(132.386398 0)"/>
    <use xlink:href="#Inter-Regular-6d" transform="translate(219.318237 0)"/>
    <use xlink:href="#Inter-Regular-6f" transform="translate(306.250076 0)"/>
    <use xlink:href="#Inter-Regular-6e" transform="translate(365.90918 0)"/>
    <use xlink:href="#Inter-Regular-20" transform="translate(424.431915 0)"/>
    <use xlink:href="#Inter-Regular-74" transform="translate(452.556915 0)"/>
    <use xlink:href="#Inter-Regular-79" transform="translate(488.920563 0)"/>
    <use xlink:href="#Inter-Regular-70" transform="translate(544.602386 0)"/>
    <use xlink:href="#Inter-Regular-65" transform="translate(605.539902 0)"/>
    <use xlink:href="#Inter-Regular-73" transform="translate(663.778549 0)"/>
    <use xlink:href="#Inter-Regular-20" transform="translate(716.051285 0)"/>
    <use xlink:href="#Inter-Regular-6f" transform="translate(744.176285 0)"/>
    <use xlink:href="#Inter-Regular-66" transform="translate(803.835388 0)"/>
    <use xlink:href="#Inter-Regular-20" transform="translate(839.914932 0)"/>
    <use xlink:href="#Inter-Regular-67" transform="translate(868.039932 0)"/>
    <use xlink:href="#Inter-Regular-72" transform="translate(928.977448 0)"/>
    <use xlink:href="#Inter-Regular-6f" transform="translate(966.193359 0)"/>
    <use xlink:href="#Inter-Regular-77" transform="translate(1025.852463 0)"/>
    <use xlink:href="#Inter-Regular-74" transform="translate(1107.102478 0)"/>
    <use xlink:href="#Inter-Regular-68" transform="translate(1143.466125 0)"/>
   </g>
  </g>
 </g>
 <defs>
  <clipPath id="pc19244b992">
   <rect x="32.906959" y="37.802595" width="144.493843" height="116.207717"/>
  </clipPath>
  <clipPath id="p14c3eaee0d">
   <rect x="220.52675" y="37.802595" width="144.493843" height="116.207717"/>
  </clipPath>
  <clipPath id="pfa7b687da5">
   <rect x="392.505917" y="37.802595" width="144.493843" height="116.207717"/>
  </clipPath>
  <clipPath id="pa9e15fbe39">
   <rect x="32.906959" y="194.761417" width="144.493843" height="116.207718"/>
  </clipPath>
  <clipPath id="pf31e743935">
   <rect x="220.52675" y="194.761417" width="144.493843" height="116.207718"/>
  </clipPath>
  <clipPath id="p1b8e961d3a">
   <rect x="392.505917" y="194.761417" width="144.493843" height="116.207718"/>
  </clipPath>
 </defs>
</svg>
